<svg xmlns="http://www.w3.org/2000/svg" viewBox="0 0 283.46 283.46"><path fill="#007ac9" d="M0 247.94c0 19.65 15.87 35.53 35.52 35.53h212.79c19.28 0 35.15-15.87 35.15-35.53V35.15C283.46 15.87 267.59 0 248.31 0H35.52C15.87 0 0 15.87 0 35.15v212.79z"/><path fill="#fff" d="M224.5 35.52c-28.35-3.4-54.05-5.29-82.4-5.29-29.48 0-55.18 1.51-83.15 5.29-8.69 1.13-13.61 6.05-13.61 13.61v165.93c0 5.29 4.16 9.07 7.56 9.82l10.58 1.89v22.3c0 2.64 2.27 4.15 4.91 4.15H85.4c2.27 0 4.54-1.51 4.54-4.15v-19.66c13.61 1.52 32.51 2.27 51.41 2.27 18.89 0 38.55-.75 52.16-2.27v19.66c0 2.64 2.27 4.15 4.54 4.15h17.01c2.64 0 4.91-1.51 4.91-4.15v-22.3l10.58-1.89c4.16-.75 7.56-4.15 7.56-9.82V49.13c0-7.56-4.91-12.47-13.61-13.61M76.34 209.76c-5.29-.38-9.45-4.54-9.45-9.45.38-4.92 4.54-9.07 9.45-9.07 4.92 0 9.07 4.15 9.07 9.07 0 5.29-4.15 9.45-9.07 9.45m129.64 0c-5.29-.38-9.45-4.54-9.45-9.45.38-4.92 4.53-9.07 9.45-9.07 4.91 0 9.07 4.15 9.07 9.07.01 5.29-4.15 9.45-9.07 9.45m17.01-46.49v.76c0 4.54-1.89 7.18-7.56 7.94-20.41 3.4-46.86 6.8-72.94 6.8-27.21 0-52.91-3.03-73.7-7.56-5.67-1.13-7.56-3.4-7.56-7.94V59.72c0-4.53 1.89-7.94 7.56-7.94l146.64.75c5.67 0 7.56 3.4 7.56 7.94v102.8z"/></svg>