<svg xmlns="http://www.w3.org/2000/svg" viewBox="0 0 283.46 283.46"><path fill="#ff6319" d="M0 248.03c0 19.49 15.94 35.43 35.43 35.43h212.6c19.49 0 35.43-15.95 35.43-35.43V35.43C283.46 15.94 267.52 0 248.03 0H35.43C15.94 0 0 15.94 0 35.43v212.6z"/><path fill="#fff" d="M165.43 248.03l40.19-137.96v-6.04c0-.39.51-.79 1.15-.58v144.58h44.17V35.43h-64.97l-40.82 145.36-.78 9.75c-.38.19-.51.19-.89 0l-1.16-9.75-40.83-145.36H36.26v212.6h44.56V103.45c.51-.21 1.15.18 1.15.58v6.04l39.93 137.96h43.53"/></svg>